<svg width="350" height="350" viewBox="0 0 350 350" fill="none" xmlns="http://www.w3.org/2000/svg">
<path fill-rule="evenodd" clip-rule="evenodd" d="M89.1292 134.383C92.6292 136.92 132.004 133.7 136.257 131.898C137.307 131.443 137.534 128.993 137.674 127.75C139.424 110.81 135.924 42.7879 132.669 38.7104C130.657 36.2079 117.934 41.6854 107.119 56.0179C93.5217 74.0954 88.5692 97.3879 87.7292 120.173C87.3906 124.721 87.7029 129.293 88.6567 133.753C88.7369 134.011 88.9038 134.234 89.1292 134.383ZM89.2517 120.225C90.0392 97.8079 94.8342 74.5854 107.977 56.6654C118.844 41.8779 130.727 37.4154 132.179 39.1654C135.452 43.2079 138.339 124.705 135.522 130.568C130.587 132.458 94.0992 134.978 90.0217 133.193C89.1692 128.926 88.9101 124.563 89.2517 120.225ZM132.669 226.695C132.845 226.556 132.964 226.357 133.002 226.135C133.877 221.848 132.687 193.025 130.709 190.558C130.627 190.447 130.522 190.356 130.401 190.289C130.28 190.223 130.147 190.183 130.009 190.173C125.477 189.893 94.6592 192.693 90.1267 193.113C88.3767 193.27 89.8117 223.038 92.3142 228.603C92.439 228.832 92.645 229.007 92.8917 229.093C95.8667 230.283 130.289 228.83 132.669 226.695ZM93.4167 227.658C91.3692 222.408 89.4267 199.483 90.4067 193.725C94.8167 193.445 125.162 191.45 129.607 191.608C131.164 196.193 132.267 221.235 131.497 225.68C131.497 225.558 131.497 225.435 131.637 225.523C132.372 226.468 103.637 228.585 94.8867 228.008H93.7142C93.4167 228.008 93.5392 227.973 93.4167 227.658ZM135.154 249.27C134.962 248.64 134.664 247.905 133.999 247.87C129.449 247.59 98.6492 250.373 94.0992 250.793C92.3492 250.95 93.7667 280.718 96.2867 286.283C96.3431 286.401 96.4236 286.505 96.5232 286.59C96.6227 286.674 96.7389 286.736 96.8642 286.773C99.8217 287.945 134.244 286.528 136.642 284.393C136.808 284.245 136.924 284.05 136.974 283.833C137.867 279.423 136.712 254.538 135.154 249.27ZM135.609 283.203C136.309 284.13 107.854 286.283 98.8592 285.688H97.8442C97.5467 285.688 97.4417 285.583 97.3017 285.215C95.2892 279.65 93.3992 257.128 94.3792 251.44C98.9467 251.143 129.117 249.165 133.579 249.34C135.137 253.925 136.222 278.968 135.434 283.395C135.487 283.255 135.539 283.133 135.609 283.203Z" fill="white"/>
<path fill-rule="evenodd" clip-rule="evenodd" d="M337.366 287.543C337.121 286.108 334.969 284.83 333.586 284.043C330.296 282.293 325.256 280.228 321.564 278.653C322.246 277.445 325.414 271.915 325.326 270.708C325.326 269.763 324.241 268.853 323.576 268.24C314.826 261.24 274.139 244.44 269.694 241.763C271.006 235.27 272.109 228.235 273.019 221.148C275.556 220.29 278.409 219.013 281.139 217.998C285.094 217.333 293.091 214.673 295.366 214.113C298.638 213.105 301.763 211.669 304.659 209.843C311.799 205.602 318.084 200.064 323.191 193.515C325.081 191.223 330.191 189.56 327.881 183.418C326.691 180.215 323.734 177.153 322.474 174.668C321.581 172.918 320.584 170.94 319.464 168.963C319.929 168.599 320.275 168.106 320.459 167.545C320.643 166.984 320.656 166.381 320.496 165.813C319.866 163.958 304.746 146.703 297.746 145.915C295.849 146.15 294.014 146.744 292.339 147.665C291.604 145.635 290.869 143.833 290.484 143.063C288.104 138.443 285.636 133.788 282.959 129.308C285.094 129.168 289.451 128.818 291.219 127.663C292.479 126.84 292.286 125.913 291.744 123.953C292.846 123.585 293.669 123.218 294.124 123.025C299.951 120.593 301.684 110.775 302.314 104.58C302.874 99.0503 305.691 54.4428 305.814 54.0928C307.564 52.1678 310.049 46.5853 311.326 44.4678C311.693 43.7368 311.907 42.939 311.956 42.1228C311.988 41.8311 311.933 41.5365 311.799 41.2753C311.666 41.0142 311.459 40.7978 311.204 40.6528C309.454 39.8128 307.896 41.0028 306.654 42.4028C307.031 41.1564 307.186 39.8529 307.109 38.5528C306.951 37.3628 306.146 36.4178 305.061 36.8028C304.49 37.0461 303.963 37.3832 303.504 37.8003C303.002 38.2658 302.572 38.8024 302.226 39.3928C302.226 38.3253 302.226 36.9428 301.334 36.4703C301.04 36.3616 300.723 36.3336 300.416 36.389C300.108 36.4443 299.821 36.5812 299.584 36.7853C298.933 37.3363 298.346 37.9585 297.834 38.6403C296.311 40.3903 295.664 43.8903 295.156 45.2378C293.406 44.5378 290.274 43.4003 289.644 45.2378C288.664 48.2303 293.546 48.9828 293.301 50.4878C292.111 57.8028 286.301 69.1428 282.381 84.5603C279.949 94.1328 281.209 93.3103 280.001 90.8778C279.144 89.1278 262.151 87.2203 260.191 87.0278C260.225 86.9538 260.243 86.8731 260.243 86.7915C260.243 86.7099 260.225 86.6293 260.191 86.5553C258.948 85.6243 257.439 85.1153 255.886 85.1028C254.267 85.1775 252.71 85.7454 251.424 86.7303C251.231 86.7303 235.009 88.2353 226.661 91.5428C226.588 91.5666 226.521 91.6088 226.469 91.6653C225.769 91.6653 225.034 91.8403 224.316 91.9453L224.456 86.2578C227.221 84.9278 229.951 83.2653 230.581 80.2378C231.126 77.3886 231.396 74.4936 231.386 71.5928C234.886 70.9453 236.636 67.7428 234.256 63.2103C234.039 62.2926 233.61 61.439 233.002 60.7184C232.393 59.9978 231.624 59.4306 230.756 59.0628C231.477 58.242 231.903 57.2037 231.967 56.113C232.03 55.0222 231.727 53.9416 231.106 53.0428C231.644 52.1353 231.804 51.0529 231.552 50.0285C231.3 49.0041 230.656 48.1195 229.759 47.5653C229.303 47.3066 228.805 47.1289 228.289 47.0403C228.166 47.0403 227.659 47.1628 227.344 47.1628C227.422 46.2672 227.207 45.3706 226.731 44.6078C226.414 44.0416 225.966 43.5599 225.424 43.2035C224.881 42.8472 224.261 42.6265 223.616 42.5603H222.986C222.97 42.3324 222.878 42.1166 222.724 41.9478C222.345 41.537 221.909 41.1833 221.429 40.8978C220.47 40.4002 219.389 40.1877 218.314 40.2853C218.037 40.3174 217.778 40.4405 217.579 40.6353C216.546 38.8853 212.784 39.2703 211.069 40.3378C210.991 40.2251 210.903 40.1197 210.806 40.0228C210.239 39.7744 209.617 39.6808 209.002 39.7515C208.387 39.8222 207.802 40.0547 207.306 40.4253C206.911 40.7329 206.548 41.0788 206.221 41.4578C205.042 41.0981 203.769 41.2065 202.668 41.7605C201.566 42.3145 200.72 43.2715 200.306 44.4328C199.94 44.3425 199.559 44.335 199.189 44.4106C198.82 44.4863 198.472 44.6433 198.171 44.8703C197.652 45.1868 197.156 45.5376 196.684 45.9203C196.402 46.2002 196.182 46.5369 196.041 46.908C195.899 47.2791 195.838 47.6762 195.861 48.0728C194.925 48.0187 193.994 48.2423 193.184 48.7156C192.375 49.1888 191.723 49.8905 191.311 50.7328C191.195 50.9976 191.135 51.2837 191.136 51.5728C191.136 52.7803 191.294 52.2028 190.384 52.5703C186.98 44.5254 182.384 37.039 176.751 30.3628C160.301 11.3403 142.574 12.9153 140.946 12.4428C133.366 10.3317 125.4 10.0023 117.671 11.4803C114.425 10.6326 111.128 9.98963 107.801 9.55527C72.6961 4.88277 45.3436 19.2503 29.0686 55.2653C10.5011 96.2503 11.4461 153.895 14.0011 183.19C14.3336 187.005 24.5011 291.13 25.3586 295.015C25.4636 295.523 25.6386 295.873 26.7236 296.258C32.3411 298.235 58.7136 297.36 64.8036 297.168C65.9236 312.918 65.8361 312.288 65.9586 312.463C70.159 313.536 74.469 314.124 78.8036 314.213C79.5561 314.108 149.749 301.665 180.969 296.013C181.721 298.568 187.356 317.555 189.229 319.428C189.42 319.61 189.666 319.727 189.929 319.76C192.288 319.741 194.637 319.447 196.929 318.885C197.541 320.898 198.136 323.068 198.679 325.22C198.136 325.64 199.431 325.535 190.454 331.31C188.435 332.516 186.51 333.873 184.696 335.37C183.805 336.378 183.152 337.575 182.789 338.87C182.666 339.302 182.714 339.764 182.922 340.161C183.131 340.559 183.484 340.861 183.909 341.005C187.986 342.37 216.039 332.605 218.786 329.823C219.801 328.773 219.539 326.323 219.329 324.73C218.724 321.011 217.929 317.326 216.949 313.688C218.349 313.268 224.579 311.395 225.699 310.433C227.274 309.033 225.104 299.933 224.596 297.798C220.834 282.608 211.751 258.983 210.596 252.42C211.611 250.215 221.096 233.275 222.724 230.545C222.724 230.37 222.601 212.94 222.724 210.175C222.724 209.02 222.899 204.558 222.916 203.56C222.905 203.514 222.904 203.466 222.915 203.419C222.925 203.373 222.945 203.329 222.975 203.292C223.004 203.254 223.042 203.224 223.085 203.203C223.128 203.182 223.175 203.172 223.222 203.172C223.27 203.172 223.317 203.182 223.36 203.203C223.403 203.224 223.44 203.254 223.47 203.292C223.499 203.329 223.52 203.373 223.53 203.419C223.54 203.466 223.54 203.514 223.529 203.56C224.372 211.899 224.507 220.294 223.931 228.655C223.931 238.088 223.669 265.195 229.409 272.685C235.149 280.175 301.439 307.178 304.256 305.76C305.446 305.165 309.821 298.27 310.714 296.87C314.511 297.949 318.23 299.288 321.844 300.878C321.825 300.958 321.825 301.042 321.844 301.123C322.754 303.38 321.161 315.123 321.599 318.15C321.912 319.476 322.509 320.718 323.349 321.79C323.623 322.145 324.023 322.38 324.465 322.449C324.908 322.517 325.36 322.413 325.729 322.158C329.124 319.743 337.961 291.375 337.366 287.543ZM154.281 279.108C152.111 273.753 151.726 252.508 152.426 247.083C153.844 246.873 161.579 245.753 169.664 244.65C170.381 254.433 173.549 268.328 175.946 277.9C171.029 278.478 160.546 279.65 155.856 279.545H154.789C154.456 279.545 154.474 279.58 154.281 279.108ZM150.396 190.75C156.171 189.928 180.391 186.445 186.219 186.06C185.939 187.145 185.711 188.213 185.519 189.193C185.186 189.891 184.899 190.61 184.661 191.345C184.329 193.235 186.411 193.095 188.424 192.99C188.424 193.533 188.581 194.093 188.651 194.74C183.43 203.364 178.754 212.307 174.651 221.515C169.646 222.128 158.656 223.265 153.756 223.265H152.496C150.676 223.143 149.469 198.223 150.396 190.75ZM194.146 155.96C193.967 153.698 193.657 151.449 193.219 149.223C193.219 149.048 191.311 140.07 191.259 139.895C191.084 139.125 190.156 135.748 189.649 135.835C189.141 135.923 189.649 139.335 189.771 140.368C190.121 142.24 190.664 144.445 191.049 146.003C188.739 147.193 178.064 156.17 172.096 158.253C170.599 159.001 169.042 159.621 167.441 160.108C167.249 160.108 166.776 158.743 166.706 158.55C165.993 155.62 165.075 152.742 163.959 149.94C162.471 146.125 155.751 132.125 156.749 129.5C158.149 128.398 163.574 125.3 165.131 124.408C179.394 116.27 178.606 117.408 179.569 116.078C180.302 114.606 181.114 113.175 182.001 111.79C186.674 107.065 192.396 101.43 198.994 99.0328C196.491 103.67 189.964 115.483 189.614 116.148C189.561 116.245 189.535 116.355 189.539 116.466C189.543 116.577 189.575 116.685 189.634 116.779C189.692 116.873 189.775 116.95 189.873 117.002C189.97 117.054 190.08 117.079 190.191 117.075C190.839 117.075 195.021 116.638 195.791 116.55C191.276 121.31 189.666 122.605 189.999 123.638C193.158 131.035 196.728 138.251 200.691 145.25C202.581 152.513 208.951 162.575 207.184 169.558C205.853 175.095 203.965 180.484 201.549 185.64C200.936 186.865 200.674 189.945 199.939 190.768C197.495 191.191 195.016 191.378 192.536 191.328C191.241 191.328 187.461 191.678 186.236 191.503C186.394 190.995 186.919 190.103 187.024 189.56C189.159 179.06 191.434 178.903 194.916 168.56C195.879 165.568 194.251 159.128 194.251 155.995L194.146 155.96ZM93.8186 161.473C93.5036 161.333 93.4861 161.473 93.8186 161.298C96.5136 160.388 100.626 158.463 102.709 160.388C103.846 161.438 100.539 164.063 99.6986 165.988C98.3638 163.808 96.2691 162.199 93.8186 161.473ZM90.7736 161.665C91.1999 161.819 91.6608 161.849 92.1036 161.753C92.609 161.796 93.1079 161.896 93.5911 162.05C105.054 167.178 96.6186 178.885 88.0786 176.785C82.9861 175.56 79.8361 169.488 82.5836 165.358C83.5515 164.129 84.8012 163.152 86.2269 162.51C87.6526 161.867 89.2122 161.577 90.7736 161.665ZM103.251 159.74C100.399 157.22 95.2536 160.283 92.4186 161.035C91.841 160.923 91.2562 160.853 90.6686 160.825C89.4611 159.933 89.2161 158.305 91.2461 157.168C94.3681 155.556 97.6382 154.249 101.011 153.265C104.256 152.607 107.622 152.899 110.706 154.105C110.775 154.136 110.849 154.151 110.925 154.151C111 154.151 111.075 154.136 111.144 154.105C138.269 140.718 147.526 136.185 155.751 132.58C157.256 139.195 162.961 149.66 164.396 155.12C147.054 158.865 108.169 161.823 107.084 164.045C105.999 166.268 103.584 168.753 101.221 167.755C98.1411 166.443 105.824 162.085 103.251 159.74ZM157.904 127.155C156.525 127.231 155.142 127.125 153.791 126.84C153.791 118.09 145.199 42.9978 148.786 39.3403C149.766 38.3603 152.724 39.2353 154.036 39.7428C158.446 41.4928 164.799 45.9903 171.239 54.7403C179.569 66.0803 185.239 80.6578 188.739 94.3253C189.363 97.2482 189.819 100.205 190.104 103.18C186.982 105.555 184.056 108.177 181.354 111.02C180.146 112.21 179.219 115.518 178.029 116.095C173.741 118.265 162.594 124.25 157.904 127.155ZM200.884 82.2503C201.085 82.6913 201.411 83.0639 201.821 83.322C202.232 83.58 202.709 83.7124 203.194 83.7028L204.629 96.2853L200.884 97.5978C200.705 92.3107 200.12 87.0451 199.134 81.8478C199.657 82.1692 200.272 82.3106 200.884 82.2503ZM240.644 88.7778C236.321 95.3753 230.861 108.535 230.844 109.778C230.844 111.528 235.569 110.46 239.471 110.53C237.616 114.835 230.336 128.765 227.956 133.28C227.956 125.388 227.764 124.058 227.781 121.03C227.781 114.66 228.674 112.875 229.094 105.543C229.524 101.116 228.955 96.6487 227.431 92.4703C231.67 90.7131 236.106 89.479 240.644 88.7953V88.7778ZM207.814 172.778C215.63 172.618 223.406 171.603 231.001 169.75C231.402 172.345 231.613 174.965 231.631 177.59C222.972 176.777 214.238 177.404 205.784 179.445C206.501 177.328 207.184 175.088 207.814 172.813V172.778ZM208.829 165.375C208.399 162.249 207.551 159.194 206.309 156.293C212.994 155.82 221.149 154.893 227.904 153.913C228.271 156.713 228.744 159.495 229.321 162.295C222.547 163.677 215.707 164.716 208.829 165.41V165.375ZM198.066 115.623C198.067 115.523 198.046 115.424 198.006 115.333C197.965 115.242 197.906 115.16 197.831 115.094C197.757 115.028 197.669 114.978 197.573 114.949C197.478 114.919 197.378 114.91 197.279 114.923C197.279 114.923 193.201 115.518 191.206 115.728C192.414 113.313 198.994 100.45 199.956 98.6828C201.706 98.0353 201.024 98.2803 204.786 97.0903C202.5 104.939 200.735 112.931 199.501 121.013C198.52 127.165 198.461 133.428 199.326 139.598C197.576 136.098 192.729 126.963 191.469 123.393C193.184 121.013 198.084 116.83 198.066 115.658V115.623ZM196.684 115.448V115.64C196.684 115.64 196.614 115.5 196.684 115.5V115.448ZM201.024 139.948C208.601 139.3 218.279 138.023 226.486 136.553C226.522 136.644 226.575 136.727 226.644 136.798C226.644 139.773 226.836 142.713 227.064 145.653C220.536 146.475 209.721 147.718 202.931 148.155C202.524 147.101 202.174 146.027 201.881 144.935C202.109 144.375 201.689 144.235 201.024 140V139.948ZM226.294 128.66C210.544 131.373 203.649 132.51 200.359 132.878C200.219 129.571 200.348 126.259 200.744 122.973C213.974 121.783 211.244 122.168 226.259 120.033C226.241 120.295 226.259 125.528 226.294 128.643V128.66ZM266.544 185.413C266.964 185.01 266.719 184.45 266.544 183.663C270.289 191.485 271.794 200.165 273.369 200.725C273.997 200.863 274.648 200.863 275.276 200.725C276.344 203.665 280.019 213.518 280.526 216.475C275.836 218.225 269.939 221.113 267.051 220.5C264.584 216.073 261.119 192.658 260.314 187.373C260.468 187.375 260.62 187.332 260.751 187.25C263.446 185.99 263.814 188.178 266.579 185.395L266.544 185.413ZM325.746 182.753C328.826 188.808 323.996 189.893 321.879 192.553C316.89 198.955 310.754 204.373 303.784 208.53C301.012 210.291 298.023 211.685 294.894 212.678C292.969 213.168 286.231 215.39 282.119 216.37C280.626 210.984 278.821 205.69 276.711 200.515C280.416 199.368 283.984 197.819 287.351 195.895C287.593 196.774 287.965 197.611 288.454 198.38C288.594 198.589 288.775 198.768 288.985 198.906C289.195 199.045 289.431 199.141 289.678 199.188C289.925 199.235 290.179 199.233 290.426 199.181C290.672 199.13 290.906 199.03 291.114 198.888C292.108 198.196 293.023 197.398 293.844 196.508C294.666 195.563 294.631 195.23 293.126 192.238C298.201 188.738 302.891 184.625 307.599 180.6C308.138 181.697 308.901 182.669 309.839 183.453C310.214 183.68 310.657 183.769 311.091 183.705C311.526 183.641 311.924 183.428 312.219 183.103C313.025 182.204 313.73 181.218 314.319 180.163C314.879 179.078 314.756 178.693 312.709 176.26C314.726 174.386 316.592 172.355 318.291 170.188C319.271 171.938 320.181 173.688 320.986 175.438C322.089 177.503 324.416 180.04 325.781 182.735L325.746 182.753ZM292.671 195.003C292.794 195.335 292.916 195.195 292.531 195.598C291.912 196.225 291.251 196.809 290.554 197.348C289.276 198.223 289.959 197.348 285.741 189.858C286.996 189.331 288.314 188.966 289.661 188.773C290.186 189.63 292.251 193.69 292.706 194.985L292.671 195.003ZM313.006 179.253C312.518 180.152 311.963 181.012 311.344 181.825C310.451 182.805 310.399 182 307.529 178.5C305.359 175.823 305.551 176.313 305.779 176.068C306.58 175.157 307.505 174.361 308.526 173.705C309.139 174.335 312.411 178.168 313.041 179.235L313.006 179.253ZM297.501 147.385C303.836 148.12 318.501 165.095 318.956 166.285C319.411 167.475 317.976 168.035 317.329 168.945C315.63 171.124 313.764 173.166 311.746 175.053C310.952 174.127 310.073 173.278 309.121 172.515C308.334 172.095 307.511 172.918 306.829 173.67C306.173 174.426 305.587 175.241 305.079 176.103C305.079 176.348 304.904 176.103 306.829 179.253C302.209 183.225 297.501 187.338 292.514 190.873C291.95 189.812 291.3 188.8 290.571 187.845C289.924 187.268 288.629 187.845 287.509 188.283C286.708 188.649 285.931 189.064 285.181 189.525C284.901 189.788 284.989 189.525 286.931 194.513C284.639 195.843 276.274 200.13 273.981 199.553C272.599 197.453 270.009 186.97 266.176 180.88C265.634 177.853 264.794 173.303 263.866 168.245C273.859 158.83 294.439 147 297.501 147.385ZM284.481 151.935C280.981 154.105 277.079 156.643 273.544 159.215C268.766 141.575 269.466 142.45 262.921 128.223C265.862 128.82 268.847 129.171 271.846 129.273C276.795 136.386 281.016 143.978 284.446 151.935H284.481ZM294.579 50.7503C295.051 47.9678 290.379 47.3553 290.921 45.6753C291.254 45.5353 291.936 45.5003 294.649 46.5678C295.139 46.7603 295.576 46.9528 295.961 46.5678C296.714 45.8328 297.379 41.3178 298.884 39.5678C299.318 38.9038 299.856 38.313 300.476 37.8178C300.539 39.8215 300.237 41.82 299.584 43.7153C299.319 44.2189 299.119 44.7539 298.989 45.3078C298.971 45.4218 298.978 45.5383 299.01 45.6493C299.041 45.7604 299.096 45.8634 299.171 45.9513C299.245 46.0393 299.338 46.1102 299.442 46.1592C299.547 46.2082 299.661 46.2341 299.776 46.2353C300.354 46.2353 300.529 45.7453 300.704 45.2378C300.879 44.7303 300.896 44.6603 301.001 44.2928C301.838 42.3369 302.958 40.5149 304.326 38.8853C304.501 38.7453 305.219 37.8353 305.324 38.2028H305.131C305.464 38.3778 305.429 39.3578 305.394 39.7253C305.057 41.8805 304.47 43.9889 303.644 46.0078C303.574 46.1777 303.565 46.3663 303.617 46.5423C303.67 46.7182 303.781 46.8709 303.932 46.9751C304.083 47.0793 304.265 47.1287 304.448 47.1151C304.632 47.1015 304.804 47.0257 304.939 46.9003C305.954 45.8853 308.526 41.4228 310.189 42.0003C310.174 42.5711 310.036 43.1321 309.786 43.6453C308.596 45.6228 305.796 51.6953 304.344 53.1478C304.183 53.3749 304.087 53.6407 304.064 53.9178C304.064 54.4428 302.314 82.0928 301.859 87.7453C301.054 97.2653 302.279 118.423 293.651 122.203C293.214 122.413 292.444 122.763 291.394 123.148C289.434 116.235 283.641 100.398 281.069 93.8528C284.306 75.6178 293.109 59.3078 294.579 50.7503ZM278.829 91.5078C280.036 94.2203 290.046 121.8 290.519 126.14C290.396 126.438 289.329 126.805 288.996 126.893C282.609 128.765 262.606 127.733 261.836 126.088C261.762 125.943 261.645 125.826 261.501 125.75C261.358 125.675 261.194 125.646 261.033 125.667C260.872 125.688 260.722 125.758 260.603 125.868C260.483 125.978 260.401 126.122 260.366 126.28C260.332 126.451 260.34 126.628 260.388 126.796C260.437 126.963 260.525 127.117 260.646 127.243C268.084 143.29 267.051 141.838 272.074 160.213C269.097 162.42 266.252 164.798 263.551 167.335C260.051 148.278 254.801 120.418 254.539 118.335C253.716 109.585 253.524 94.7103 259.159 87.9203C263.166 88.3578 275.294 89.9678 278.899 91.5078H278.829ZM259.316 86.8353C252.719 92.8553 252.666 109.585 253.366 118.475C253.699 122.64 264.671 181.598 265.144 184.555C264.006 185.605 263.674 185.343 262.904 185.273C262.107 185.19 261.303 185.323 260.576 185.658C257.461 178.85 245.719 116.778 246.891 106.488C247.556 100.695 249.236 92.3303 251.931 87.1503C252.982 86.3181 254.268 85.8395 255.607 85.7829C256.946 85.7263 258.269 86.0947 259.386 86.8353H259.316ZM250.811 87.6053C248.225 93.5781 246.532 99.8992 245.789 106.365C244.441 116.865 253.069 162.365 256.534 177.03C250.999 178.97 245.642 181.382 240.521 184.24C238.456 185.483 235.044 189.21 233.119 189.648C232.559 189.018 232.961 185.57 232.961 185.028C232.961 181.038 233.049 177.38 232.769 173.688C232.034 164.343 228.446 159.513 227.729 136.745C228.009 136.43 239.156 115.185 240.889 110.705C241.08 110.352 241.124 109.936 241.011 109.55C240.749 109.025 240.101 109.043 239.471 109.043C237.721 109.043 233.539 109.515 232.156 109.358C234.569 102.276 237.62 95.4289 241.274 88.9003C252.001 87.5003 249.236 87.7278 250.881 87.6053H250.811ZM226.311 92.4703C227.869 98.3853 228.569 100.1 226.871 112.823C223.564 113.628 220.256 114.433 216.599 115.01C213.729 115.483 203.736 116.865 201.654 116.76C203.246 106.26 203.404 107.1 205.259 98.5253C207.131 104.09 210.806 110.968 216.669 111.668C222.531 112.368 225.559 108.378 226.276 102.673C226.556 100.363 224.999 94.9203 224.334 92.7153L226.311 92.4703ZM229.251 79.9578C228.691 82.4428 226.154 83.8603 223.844 84.9103C223.389 85.1203 223.004 85.3128 222.986 85.8028C222.8 88.0785 222.735 90.3626 222.794 92.6453C223.406 94.5878 225.069 100.485 224.806 102.515C224.211 107.258 221.691 110.705 216.914 110.128C211.366 109.463 207.621 101.535 206.239 96.1278C206.239 95.4628 204.734 83.4228 204.716 83.2653C205.082 83.0253 205.353 82.6646 205.481 82.2457C205.609 81.8269 205.586 81.3764 205.416 80.9728C205.26 80.6596 205.137 80.3312 205.049 79.9928C205.049 79.4853 204.664 77.7178 204.489 76.9828C204.314 76.2478 204.139 76.2303 203.894 76.1253C200.394 74.7253 198.539 71.8903 200.114 68.1628C200.327 67.7932 200.638 67.4895 201.013 67.2849C201.387 67.0802 201.811 66.9825 202.237 67.0024C202.663 67.0222 203.076 67.159 203.43 67.3976C203.784 67.6362 204.065 67.9675 204.244 68.3553C204.557 69.2932 205.03 70.1695 205.644 70.9453C206.501 71.8378 207.394 71.3128 207.761 70.2803C208.129 69.2478 207.604 68.3028 208.076 64.9253C208.321 63.1753 208.689 61.6528 209.004 59.9903C209.126 59.4128 208.584 57.0853 208.864 56.8928C210.194 55.9828 211.156 57.0678 212.504 57.9428C214.516 59.2553 216.739 60.4628 219.066 59.6928C221.647 59.1239 224.028 57.8729 225.961 56.0703C226.668 56.9825 227.459 57.8262 228.324 58.5903C228.604 58.7828 228.569 58.7128 228.604 58.8353C225.314 59.4653 224.684 61.9853 225.331 65.2578C224.316 65.4678 222.986 66.1678 222.216 66.3778C221.764 65.1473 220.961 64.0764 219.906 63.2978C219.011 62.4919 217.903 61.961 216.715 61.7686C215.526 61.5762 214.307 61.7304 213.204 62.2128C210.614 63.1228 207.954 67.4628 209.704 72.0303C209.954 72.8042 210.361 73.5181 210.9 74.1274C211.439 74.7368 212.098 75.2284 212.835 75.5717C213.573 75.9149 214.373 76.1024 215.186 76.1224C215.999 76.1424 216.808 75.9944 217.561 75.6878C218.59 75.3899 219.547 74.8877 220.377 74.2112C221.207 73.5346 221.892 72.6976 222.391 71.7503C222.864 70.4454 222.913 69.0247 222.531 67.6903C222.829 67.6903 223.319 67.6903 223.756 67.5678C224.049 68.7694 224.453 69.9411 224.964 71.0678C225.069 71.3128 225.734 72.9228 225.576 73.0978C225.272 73.4165 224.931 73.6984 224.561 73.9378C224.334 74.0603 224.106 74.0778 224.106 74.3403C224.106 75.0403 225.856 74.4453 226.416 74.0428C226.976 73.6403 227.151 72.6078 226.871 71.6803C226.379 70.1158 225.621 68.6478 224.631 67.3403L225.629 66.8153C226.346 68.9503 227.939 71.3828 230.161 71.6978C230.114 74.4733 229.809 77.2385 229.251 79.9578ZM221.236 71.2078C219.819 74.0603 214.709 76.0903 212.171 73.5353C211.697 73.0293 211.329 72.4345 211.086 71.7853C210.713 70.8874 210.543 69.9183 210.589 68.9472C210.634 67.976 210.894 67.0269 211.349 66.1678C211.777 65.0802 212.585 64.1848 213.624 63.6478C214.548 63.1533 215.594 62.9334 216.639 63.014C217.684 63.0947 218.684 63.4724 219.521 64.1028C220.421 65.0039 221.052 66.1371 221.346 67.3761C221.639 68.6152 221.583 69.9113 221.184 71.1203L221.236 71.2078ZM233.644 63.5428C234.834 66.6578 234.431 69.5278 231.194 70.1753C227.956 70.8228 224.859 62.1078 227.921 60.7428C230.634 59.3253 232.191 60.7078 233.591 63.4553L233.644 63.5428ZM227.064 47.0928C227.064 47.0928 227.204 47.0928 227.239 47.2328C227.274 47.3728 226.994 47.0928 227.011 47.0053L227.064 47.0928ZM211.471 40.7578C211.471 40.7578 211.296 40.7578 211.191 40.6353C211.401 40.4778 211.611 40.4603 211.419 40.6703L211.471 40.7578ZM26.5836 294.805C25.6561 290.903 15.6636 185.343 15.4536 183.05C12.9861 154 12.0761 96.6003 30.5036 56.0003C45.8336 22.0503 70.9461 7.78777 103.601 10.6753C106.209 10.9028 108.659 11.2353 111.039 11.6553C56.6486 13.0203 36.9261 66.6578 31.8861 121.188C30.0089 142.765 30.0089 164.465 31.8861 186.043C32.6036 194.268 42.3861 291.655 43.1386 296.293C40.9161 296.24 28.5436 296.118 26.5836 294.805ZM43.7686 296.275C41.8961 283.273 34.0911 198.275 33.0761 186.025C29.7511 146.545 32.0436 94.5003 48.2486 58.7828C59.7811 33.3378 78.8911 14.4378 110.041 13.2828C57.3661 29.1728 53.8836 109.988 55.6686 164.85C55.9311 172.148 62.0561 259.35 64.6636 296.1C56.8236 296.223 49.7011 296.328 43.7511 296.275H43.7686ZM78.4186 313.688C77.4036 300.038 69.3011 175.613 69.0386 166.583C67.1311 104.23 72.8186 19.8628 135.014 14.3328C161.176 11.9878 178.501 29.3828 189.001 53.5678C187.844 55.0603 187.299 56.9378 187.479 58.8178C187.622 59.2581 187.882 59.6513 188.231 59.9553C187.733 60.4952 187.379 61.1509 187.199 61.8628C187.195 62.7131 187.406 63.5505 187.813 64.2971C188.22 65.0437 188.809 65.6752 189.526 66.1328C189.404 66.3603 189.316 66.5353 189.281 66.6228C188.389 69.7203 189.281 70.9278 191.031 71.8728C190.753 72.9298 190.848 74.0507 191.301 75.0456C191.753 76.0405 192.536 76.8485 193.516 77.3328C193.969 77.4488 194.432 77.5249 194.899 77.5603C194.847 78.0021 194.847 78.4485 194.899 78.8903C195.144 79.9053 196.124 80.2203 197.156 80.3253C198.362 86.2225 199.065 92.2115 199.256 98.2278C196.449 99.1901 193.801 100.564 191.399 102.305C191.102 99.5534 190.658 96.8195 190.069 94.1153C186.359 80.1153 180.706 65.7128 172.026 54.2503C161.789 40.7228 150.711 36.5928 148.261 39.0428C143.991 43.3128 152.444 121.468 152.251 127.12C152.251 128.468 154.369 128.608 155.751 128.678C155.359 129.393 155.229 130.222 155.384 131.023C140.474 137.568 110.934 152.898 110.759 153.003C107.517 151.827 104.004 151.614 100.644 152.39C97.2327 153.443 93.9329 154.826 90.7911 156.52C88.6911 157.763 88.5336 159.513 89.6361 160.808C83.6686 160.808 78.9261 165.043 80.3611 170.958C80.7649 172.561 81.5525 174.043 82.656 175.274C83.7595 176.506 85.1458 177.451 86.6956 178.028C88.2453 178.605 89.9121 178.796 91.5523 178.586C93.1925 178.375 94.757 177.77 96.1111 176.82C97.5226 175.962 98.6759 174.737 99.4491 173.277C100.222 171.817 100.587 170.175 100.504 168.525C103.374 170.135 106.506 167.51 108.046 164.64C110.479 163.573 134.471 161.14 147.719 159.39C154.211 158.515 160.266 157.64 164.764 156.625C165.047 158.296 165.679 159.888 166.619 161.298C167.721 162.418 171.291 160.213 172.761 159.705C178.659 157.71 188.511 149.59 191.469 147.735C192.071 150.458 192.498 153.217 192.746 155.995C192.746 158.97 194.321 165.585 193.534 167.965C190.891 175.875 188.284 178.885 186.709 184.625C180.461 185.045 156.206 189.158 150.169 190.208C150.102 190.215 150.039 190.245 149.991 190.293C149.944 190.341 149.914 190.403 149.906 190.47C148.961 196.105 148.839 219.083 151.394 223.965C151.744 224.648 153.144 224.63 154.316 224.63C158.236 224.63 166.461 224 174.144 223.108C172.046 227.863 170.57 232.868 169.751 238C169.597 239.881 169.597 241.772 169.751 243.653C160.791 245.088 152.251 246.558 152.251 246.558C152.189 246.573 152.134 246.607 152.09 246.653C152.047 246.7 152.018 246.758 152.006 246.82C151.061 252.473 150.921 275.433 153.476 280.333C153.608 280.556 153.821 280.719 154.071 280.788C156.574 281.628 173.864 279.738 176.506 279.44C177.871 284.813 179.341 290.133 180.759 295.05C149.066 300.825 80.6586 313.25 78.4186 313.688ZM215.899 314.055C216.354 316.26 216.861 318.623 217.264 320.845L199.589 324.975C199.029 322.858 198.364 320.74 197.681 318.763C203.229 317.59 210.351 315.718 215.899 314.055ZM310.941 296.31C314.196 291.183 318.169 284.673 321.144 279.405C323.629 280.578 326.604 281.908 329.264 283.22L322.001 299.88C318.399 298.442 314.704 297.249 310.941 296.31Z" fill="white"/>
<path fill-rule="evenodd" clip-rule="evenodd" d="M217.561 68.6353C217.603 68.4749 217.6 68.3061 217.553 68.1472C217.505 67.9883 217.416 67.8453 217.293 67.7337C217.171 67.622 217.02 67.5459 216.858 67.5136C216.695 67.4813 216.527 67.494 216.371 67.5503C215.513 67.8828 215.898 68.8453 215.863 69.7903C215.859 69.9081 215.878 70.0257 215.92 70.1359C215.961 70.2461 216.025 70.3468 216.107 70.4318C216.189 70.5168 216.287 70.5844 216.395 70.6305C216.504 70.6767 216.62 70.7004 216.738 70.7003C216.963 70.6963 217.178 70.6075 217.34 70.4518C217.503 70.296 217.6 70.0848 217.613 69.8603C217.613 69.5103 217.578 69.0203 217.561 68.6353ZM229.391 64.8903C229.376 64.7754 229.338 64.6646 229.281 64.5641C229.223 64.4637 229.146 64.3756 229.054 64.3049C228.962 64.2342 228.857 64.1823 228.746 64.1521C228.634 64.122 228.517 64.1141 228.402 64.1291C228.287 64.144 228.176 64.1814 228.076 64.2392C227.975 64.297 227.887 64.374 227.817 64.4658C227.746 64.5576 227.694 64.6624 227.664 64.7743C227.634 64.8862 227.626 65.0029 227.641 65.1178C227.704 65.5798 227.804 66.0362 227.938 66.4828C227.964 66.6037 228.015 66.7179 228.088 66.8176C228.161 66.9174 228.255 67.0006 228.362 67.0616C228.47 67.1227 228.589 67.1603 228.712 67.1719C228.835 67.1836 228.959 67.169 229.076 67.1291C229.193 67.0893 229.301 67.0251 229.391 66.9408C229.481 66.8564 229.553 66.7539 229.601 66.6399C229.649 66.5259 229.672 66.4031 229.669 66.2795C229.666 66.1559 229.637 66.0343 229.583 65.9228C229.498 65.5829 229.434 65.2381 229.391 64.8903ZM223.248 79.0303C223.073 79.0303 221.498 78.4178 221.341 78.6453C221.183 78.8728 221.498 80.1853 222.776 80.5353C224.053 80.8853 225.068 80.0803 225.016 79.7828C224.963 79.4853 224.981 79.5378 223.248 79.0303ZM272.826 35.7178C274.331 32.9003 280.491 29.2253 282.311 28.9978C282.394 28.9978 282.475 28.9646 282.534 28.9055C282.593 28.8465 282.626 28.7663 282.626 28.6828C282.626 28.5993 282.593 28.5191 282.534 28.4601C282.475 28.401 282.394 28.3678 282.311 28.3678C279.248 27.8603 273.106 31.1328 272.213 35.5078C272.186 35.589 272.191 35.678 272.229 35.7551C272.267 35.8322 272.333 35.8912 272.415 35.9191C272.496 35.9469 272.585 35.9413 272.662 35.9036C272.739 35.8659 272.798 35.799 272.826 35.7178ZM282.328 38.1328C281.271 38.4518 280.299 39.0042 279.485 39.7494C278.67 40.4945 278.033 41.4133 277.621 42.4378C276.787 44.4286 276.58 46.6261 277.026 48.7378C277.042 48.8066 277.082 48.8677 277.137 48.9115C277.193 48.9553 277.261 48.9791 277.332 48.9791C277.403 48.9791 277.472 48.9553 277.527 48.9115C277.583 48.8677 277.622 48.8066 277.638 48.7378C277.813 47.5828 278.163 46.2178 278.233 45.9028C278.539 43.7962 279.465 41.8283 280.893 40.2503C282.486 38.5003 282.993 38.6753 282.766 38.2378C282.719 38.1687 282.649 38.1195 282.568 38.1001C282.487 38.0806 282.401 38.0923 282.328 38.1328Z" fill="white"/>
</svg>
