<svg width="350" height="350" viewBox="0 0 350 350" fill="none" xmlns="http://www.w3.org/2000/svg">
<path d="M84.8747 246.75C85.5397 246.855 89.1797 247.03 89.1797 246.4C89.1797 246.032 88.5147 246.05 88.5147 246.05C88.6022 243.25 92.1547 242.55 94.6922 244.02C95.3916 244.422 96.0382 244.91 96.6172 245.472C93.0297 245.665 88.2697 248.115 88.5847 251.667C88.7655 252.594 89.154 253.467 89.7208 254.222C90.2875 254.976 91.018 255.593 91.8572 256.025C92.9061 256.81 94.1009 257.378 95.3719 257.697C96.6428 258.015 97.9644 258.077 99.2597 257.88C101.567 257.292 103.596 255.918 105 253.995C108.172 254.096 111.275 253.059 113.75 251.072C113.854 250.99 113.941 250.886 114.004 250.769C114.067 250.652 114.106 250.523 114.117 250.39C114.117 249.777 114.117 249.812 110.617 245.927C110.518 245.817 110.394 245.732 110.255 245.679C110.116 245.626 109.967 245.608 109.819 245.625C109.672 245.642 109.531 245.695 109.408 245.778C109.285 245.861 109.183 245.972 109.112 246.102C109.052 246.179 108.999 246.261 108.955 246.347C108.677 246.869 108.227 247.28 107.682 247.509C107.137 247.739 106.53 247.773 105.962 247.607C104.212 247.1 101.955 242.462 97.8422 239.697C94.2547 237.282 89.4422 236.565 86.0472 239.435C84.586 240.689 83.5471 242.364 83.0722 244.23C82.8832 244.805 82.9208 245.431 83.1772 245.98C83.6368 246.425 84.2368 246.697 84.8747 246.75ZM91.4547 253.242C90.9749 252.9 90.6418 252.389 90.5218 251.811C90.4018 251.234 90.5037 250.633 90.8072 250.127C91.5832 249.055 92.6618 248.238 93.9047 247.782C92.902 249.482 92.0808 251.283 91.4547 253.155V253.242ZM107.94 250.477C108.36 249.217 107.94 249.655 108.64 249.34C109.17 249.076 109.65 248.72 110.057 248.29L111.65 250.18C110.331 251.016 108.873 251.609 107.345 251.93C107.52 251.475 107.8 250.775 107.94 250.39V250.477ZM101.605 246.015C103.267 248.097 104.65 249.952 107.187 249.742C106.825 250.496 106.532 251.281 106.312 252.087C105.035 252.175 104.86 251.877 104.352 252.087C103.355 252.472 101.71 256.06 97.7197 256.042C97.968 255.487 98.1275 254.897 98.1922 254.292C99.3212 254.064 100.378 253.566 101.272 252.84C101.655 252.508 101.904 252.047 101.972 251.545C101.972 250.932 101.762 250.145 100.467 249.112C100.95 248.09 101.331 247.024 101.605 245.927V246.015ZM95.7247 252.63C94.1847 251.807 96.8097 250.355 98.5072 250.407C98.8972 250.41 99.2784 250.524 99.6067 250.734C99.935 250.945 100.197 251.244 100.362 251.597C100.128 251.974 99.8202 252.298 99.4565 252.552C99.0928 252.805 98.6812 252.981 98.2471 253.069C97.8129 253.158 97.3652 253.157 96.9315 253.066C96.4978 252.975 96.0871 252.797 95.7247 252.542V252.63ZM97.7897 241.92C98.978 242.93 100.057 244.062 101.01 245.297C100.456 246.307 100.033 247.383 99.7497 248.5C99.0142 248.289 98.2433 248.231 97.4847 248.33C96.726 248.43 95.9959 248.684 95.3397 249.077C92.1372 250.827 92.8897 254.66 97.3347 254.222C97.0734 254.726 96.8793 255.261 96.7572 255.815C94.9825 255.461 93.3231 254.674 91.9272 253.522C93.1677 251.595 94.1337 249.504 94.7972 247.31C95.4775 246.997 96.2135 246.824 96.9618 246.8C97.7101 246.776 98.4557 246.902 99.1547 247.17L99.5222 245.787L99.1372 245.612C98.3147 245.052 97.9472 244.615 97.0022 243.862C97.3529 243.223 97.6177 242.541 97.7897 241.832V241.92ZM90.9997 239.12C93.1896 239.16 95.3102 239.895 97.0547 241.22C96.7413 241.933 96.5066 242.678 96.3547 243.442C95.5158 242.784 94.5262 242.345 93.4753 242.165C92.4243 241.984 91.3449 242.069 90.3347 242.41C90.7039 241.348 90.9276 240.242 90.9997 239.12ZM86.9922 240.485C87.9623 239.73 89.1282 239.268 90.3522 239.155C89.8092 240.331 89.4718 241.592 89.3547 242.882C88.8332 243.195 88.4065 243.644 88.1199 244.18C87.8333 244.716 87.6975 245.32 87.7272 245.927C86.501 245.995 85.2741 245.81 84.1222 245.385C84.3825 243.441 85.4017 241.679 86.9572 240.485H86.9922ZM60.8472 237.562C57.6972 236.197 50.6972 240.24 49.4197 242.41C49.2349 242.889 49.2349 243.419 49.4197 243.897C50.5222 248.08 60.8122 262.85 62.7197 265.142C63.0522 265.562 63.5072 264.985 63.2097 264.495C62.2997 262.99 62.4047 266.017 67.0597 250.95C67.4909 250.781 67.8925 250.545 68.2497 250.25C68.412 250.07 68.5018 249.836 68.5018 249.594C68.5018 249.351 68.412 249.117 68.2497 248.937C68.0908 248.741 67.9086 248.565 67.7072 248.412L68.8097 244.335L73.1847 246.75C72.2999 248.961 71.6546 251.261 71.2597 253.61C69.4952 254.246 67.8417 255.155 66.3597 256.305C65.3272 257.442 66.9547 259.542 67.9697 260.802C68.9847 262.062 69.8422 262.92 70.0347 263.112C70.2272 263.305 70.8397 263.112 70.7872 262.797C70.676 262.544 70.5287 262.308 70.3497 262.097C69.4014 260.621 68.5873 259.064 67.9172 257.442C69.2773 256.629 70.7132 255.949 72.2047 255.412C72.7472 255.22 74.4272 254.695 74.8822 254.975C77.1273 256.158 79.4691 257.147 81.8822 257.932C81.9796 257.979 82.0915 257.985 82.1933 257.948C82.295 257.912 82.3782 257.837 82.4247 257.74C82.4711 257.642 82.4769 257.531 82.4408 257.429C82.4047 257.327 82.3296 257.244 82.2322 257.197L79.2047 255.36C79.8492 253.899 80.2625 252.346 80.4297 250.757L87.9022 254.8C88.3572 255.062 88.7072 254.345 88.3747 254.152C88.0422 253.96 65.3622 239.54 60.8472 237.562ZM58.1872 239.417C58.7978 239.234 59.449 239.234 60.0597 239.417C60.4622 239.592 61.4422 240.117 62.7722 240.852C62.3235 242.091 62.0182 243.377 61.8622 244.685C60.6897 244.02 59.9897 243.512 59.0622 243.67C58.5566 243.783 58.0837 244.011 57.6797 244.335C57.8547 242.97 58.0122 241.92 58.1872 239.417ZM51.1872 243.267C53.0021 241.537 55.204 240.265 57.6097 239.557C56.6757 243.685 56.0209 247.871 55.6497 252.087C53.885 249.293 52.3963 246.333 51.2047 243.25L51.1872 243.267ZM59.1322 257.985C58.1697 256.392 57.1197 254.625 56.1222 252.892C56.7172 250.39 56.9097 249.235 57.2772 246.872C58.2347 248.533 59.3417 250.103 60.5847 251.562C59.8791 253.646 59.398 255.799 59.1497 257.985H59.1322ZM62.1947 263.025C61.5647 262.027 60.7597 260.68 59.7097 258.947C60.374 256.752 60.8138 254.494 61.0222 252.21C61.4072 253.137 64.8372 251.807 65.7647 251.457C65.0822 253.61 62.7022 261.1 62.2122 263.025H62.1947ZM61.6697 251.667C60.5851 249.79 59.6264 247.844 58.7997 245.84L59.3422 245.542C59.5872 245.682 65.5722 249.217 66.0097 249.497C64.6458 250.365 63.1975 251.092 61.6872 251.667H61.6697ZM66.9197 247.817C65.6072 246.942 63.8222 245.875 62.4572 245.087C62.9242 243.848 63.23 242.554 63.3672 241.237L68.3372 244.037C68.2497 244.702 67.6547 246.067 67.0247 247.817H66.9197ZM78.5047 254.817L75.8097 253.19C74.6121 252.717 73.2797 252.717 72.0822 253.19C72.7604 251.144 73.2524 249.042 73.5522 246.907L79.8872 250.407C79.2399 251.835 78.8094 253.351 78.6097 254.905L78.5047 254.817Z" fill="white"/>
<path d="M340.112 261.047C337.277 234.657 312.847 194.075 298.252 171.902C306.402 172.554 314.58 172.759 322.752 172.515C325.08 172.515 331.17 172.095 332.342 171.867C333.025 171.727 333.13 171.08 332.097 171.045C331.065 171.01 323.715 170.66 322.717 170.642H304.92C302.19 170.747 297.92 170.992 297.675 170.992C292.425 162.995 288.767 157.99 288.732 157.972C288.692 157.932 288.643 157.9 288.59 157.879C288.536 157.859 288.479 157.85 288.422 157.853C288.365 157.857 288.309 157.872 288.258 157.899C288.208 157.926 288.163 157.963 288.128 158.008C288.093 158.053 288.068 158.106 288.054 158.161C288.041 158.217 288.04 158.275 288.05 158.331C288.061 158.387 288.084 158.441 288.117 158.487C288.15 158.534 288.193 158.573 288.242 158.602C289.047 159.25 324.415 210.927 335.23 246.522C339.517 260.645 342.055 278.372 328.23 283.272C295.4 294.997 38.2722 298.812 13.9647 285.022C10.5872 283.115 9.79971 279.142 10.4647 273.787C11.4972 266.35 15.5047 256.287 20.3347 245.017C25.7772 250.267 70.9272 291.725 78.2422 290.167C85.5572 288.61 126.7 269.5 128.397 265.842C129.383 263.302 129.905 260.605 129.937 257.88C130.144 257.595 130.241 257.244 130.209 256.893C130.176 256.542 130.018 256.215 129.762 255.972C127.05 253.277 73.2372 210.612 69.7722 210.735C67.3572 210.84 62.9822 213.325 60.8997 214.55C60.2245 213.445 59.2193 212.581 58.026 212.078C56.8327 211.576 55.5118 211.461 54.2497 211.75C53.0598 212.231 51.9943 212.975 51.1334 213.926C50.2726 214.878 49.6388 216.013 49.2797 217.245C49.2993 217.34 49.3509 217.424 49.4258 217.485C49.5007 217.546 49.5944 217.58 49.691 217.58C49.7875 217.58 49.8812 217.546 49.9561 217.485C50.031 217.424 50.0826 217.34 50.1022 217.245C51.1548 215.465 52.8234 214.133 54.7922 213.5C55.6108 213.374 56.4483 213.483 57.2073 213.815C57.9663 214.146 58.6156 214.687 59.0797 215.372L39.6197 223.685C38.5864 222.623 37.2965 221.845 35.8747 221.427C32.5497 220.552 30.3097 222.74 28.9797 225.942C28.9504 226.035 28.9538 226.134 28.9893 226.224C29.0248 226.314 29.0902 226.389 29.1745 226.436C29.2588 226.483 29.3568 226.5 29.452 226.483C29.5473 226.467 29.6339 226.418 29.6972 226.345C31.9372 223.107 34.5272 222.005 37.6247 224.595C33.8797 226.257 28.6472 228.62 24.9722 230.44C25.2347 230.02 62.9997 161.63 62.9997 161.455C64.6622 158.375 68.0047 152.862 71.4522 152.145C73.0104 151.805 74.5999 151.629 76.1947 151.62C73.7622 155.645 54.0222 188.37 53.9872 192.99C53.9872 198.24 54.8972 197.417 57.6972 198.24C60.4972 199.062 217.175 198.1 217.455 198.1C220.167 198.1 230.772 197.75 231.752 197.032C234.797 194.792 234.115 191.45 232.785 187.932C232.47 187.092 230.877 183.61 228.742 178.955C237.93 176.19 244.842 179.707 245.472 194.705C246.102 207.672 240.992 211.627 231.21 211.067C223.352 210.612 217.927 208.302 216.212 211.365C214.287 214.777 219.607 222.442 221.917 225.627C221.585 225.627 206.937 225.33 203.245 225.172C198.041 224.971 192.831 225.035 187.635 225.365C184.056 225.444 180.498 225.931 177.03 226.817C175.717 227.465 174.02 230.842 173.302 232.26C171.885 235.042 165.427 252.507 163.642 257.547C162.592 260.452 159.04 270.077 161.42 271.775C161.332 273.647 161.63 276.15 163.275 277.025C164.92 277.9 187.53 278.53 189.262 278.565C192.325 278.652 223.282 279.055 243.04 278.18C262.797 277.305 271.425 275.415 270.917 275.467C271.419 275.32 271.87 275.035 272.219 274.646C272.568 274.256 272.802 273.777 272.895 273.262C273.165 271.969 273.08 270.627 272.65 269.377C274.855 265.09 258.177 229.495 253.557 226.992C253.284 226.839 252.978 226.755 252.665 226.747C251.737 226.747 230.982 225.872 222.915 225.61C221.165 223.142 215.477 213.85 217.665 211.872C220.99 208.967 248.762 223.527 247.275 194.547C246.505 181.44 240.467 173.757 228.217 178.202C227.15 175.892 218.19 156.747 215.792 151.655C225.08 152.211 234.398 152.006 243.652 151.042C243.785 152.676 244.255 154.264 245.032 155.706C245.809 157.149 246.877 158.415 248.167 159.425C255.167 164.675 283.027 163.887 288.085 157.465C289.502 155.527 290.481 153.304 290.956 150.95C291.43 148.597 291.388 146.168 290.832 143.832C291.298 143.536 291.659 143.102 291.865 142.59C292.145 142.047 291.865 141.365 290.657 141.12C289.099 140.887 287.524 140.793 285.95 140.84C285.95 139.405 286.037 136.727 285.95 133.682C286.107 133.577 287.245 132.212 287.367 132.055C288.762 130.425 289.863 128.566 290.622 126.56C291.2 124.932 291.427 123.06 289.905 122.15C287.56 120.872 285.915 123.217 285.127 125.842C284.392 121.8 282.695 115.867 278.635 116.462C271.74 117.512 276.5 134.225 278.74 140.84C276.772 140.563 274.775 140.563 272.807 140.84C274.995 135.345 276.115 128.24 270.497 127.172C269.646 126.984 268.757 127.05 267.943 127.361C267.128 127.672 266.422 128.215 265.912 128.922C265.8 128.526 265.589 128.165 265.299 127.873C265.009 127.581 264.649 127.367 264.254 127.252C263.859 127.136 263.441 127.123 263.039 127.213C262.637 127.303 262.265 127.494 261.957 127.767C259.385 129.622 260.855 133.875 263.847 135.275C263.69 137.074 263.69 138.883 263.847 140.682C261.984 140.457 260.099 140.499 258.247 140.805C258.143 136.532 257.675 132.276 256.847 128.082C257.911 127.326 258.805 126.356 259.474 125.236C260.143 124.115 260.571 122.868 260.732 121.572C260.977 119.245 260.155 117.302 258.212 116.795C255.78 116.165 254.345 117.862 253.925 120.295C251.772 117.32 247.555 116.252 245.507 119.665C238.945 112.84 235.777 116.655 237.44 119.665C238.682 121.975 241.92 123.27 244.44 123.987C244.44 127.907 246.19 131.215 248.36 134.592C249.812 136.867 251.44 139.055 252.7 140.665C249.977 140.577 247.251 140.753 244.562 141.19C242.917 141.627 242.655 142.817 244.177 143.675C243.696 145.726 243.519 147.837 243.652 149.94C234.252 149.44 224.826 149.662 215.46 150.605C214.865 149.327 213.097 145.6 212.887 145.162C212.677 144.725 214.357 139.65 216.72 92.4699C227.57 91.5599 276.36 92.6449 280.84 90.9124C281.096 90.8202 281.324 90.6615 281.499 90.4524C281.675 90.2433 281.791 89.9914 281.837 89.7224C283.325 84.8399 284.34 42.8749 281.837 38.9724C281.225 38.0099 279.037 37.7124 277.83 37.5374C262.237 35.2624 197.172 36.2424 193.83 38.0099C190.487 39.7774 191.905 57.0324 192.535 60.4624C158.742 59.3774 80.7097 61.4949 73.3597 64.2424C71.6097 64.8724 70.9622 67.2699 70.6122 69.0724C67.7072 84.0699 75.8622 132.335 78.5922 147.245C78.4172 147.245 78.5922 147.245 76.4572 150.57C74.6501 150.436 72.8333 150.53 71.0497 150.85C67.0597 151.462 63.3847 156.975 61.3547 160.405C61.2672 160.58 56.1047 169.155 55.3347 170.555C50.9422 169.872 30.5197 170.135 27.9297 170.275C25.3397 170.415 22.6797 170.607 20.3347 170.782C19.9147 170.782 19.8797 171.587 20.3347 171.605C25.2347 171.902 27.0372 172.007 30.8347 172.06C40.1272 172.2 53.8297 172.585 54.2672 172.532C53.3572 174.125 39.8822 198.1 38.0797 201.495C30.2397 216.195 24.0797 229.652 23.7122 230.79C21.6779 231.715 19.7673 232.891 18.0247 234.29C17.4626 235.832 17.1267 237.447 17.0272 239.085C16.9397 241.902 17.9547 242.585 19.5122 244.16C15.333 253.114 11.8973 262.397 9.23971 271.915C8.3721 275.766 8.33631 279.757 9.13471 283.622C9.84924 287.487 11.1849 291.21 13.0897 294.647C13.9454 295.516 15.0542 296.092 16.2572 296.292C20.8597 297.587 35.1222 299.25 39.8997 299.792C39.5396 301.931 39.4397 304.105 39.6022 306.267C39.6069 308.495 39.9311 310.711 40.5647 312.847C40.5705 312.9 40.5866 312.951 40.6121 312.998C40.6376 313.045 40.6721 313.086 40.7135 313.119C40.755 313.153 40.8026 313.177 40.8536 313.192C40.9046 313.207 40.9581 313.212 41.011 313.206C41.0638 313.2 41.115 313.184 41.1617 313.159C41.2083 313.133 41.2494 313.099 41.2828 313.057C41.3161 313.016 41.3409 312.968 41.3558 312.917C41.3707 312.866 41.3755 312.813 41.3697 312.76C41.6497 310.578 41.7258 308.376 41.5972 306.18C41.5857 304.066 41.3451 301.96 40.8797 299.897C43.2947 300.107 45.6222 300.282 47.6522 300.352C47.3294 302.395 47.2413 304.467 47.3897 306.53C47.3956 308.758 47.7197 310.974 48.3522 313.11C48.3522 313.217 48.3946 313.319 48.4701 313.395C48.5456 313.47 48.648 313.512 48.7547 313.512C48.8615 313.512 48.9638 313.47 49.0393 313.395C49.1148 313.319 49.1572 313.217 49.1572 313.11C49.4466 310.929 49.5286 308.726 49.4022 306.53C49.3902 304.486 49.1555 302.45 48.7022 300.457C52.6047 300.545 110.04 305.707 209.23 303.747C235.812 303.222 267.767 301.997 294.087 299.11C293.74 301.22 293.64 303.364 293.79 305.497C293.798 307.721 294.128 309.931 294.77 312.06C294.757 312.119 294.758 312.179 294.772 312.238C294.786 312.296 294.813 312.35 294.851 312.397C294.888 312.443 294.936 312.481 294.99 312.507C295.044 312.533 295.103 312.546 295.163 312.546C295.223 312.546 295.283 312.533 295.337 312.507C295.391 312.481 295.438 312.443 295.476 312.397C295.514 312.35 295.541 312.296 295.555 312.238C295.569 312.179 295.57 312.119 295.557 312.06C295.863 309.881 295.945 307.676 295.802 305.48C295.783 303.318 295.531 301.165 295.05 299.057C296.992 298.847 301.49 298.287 301.875 298.235C301.53 300.334 301.436 302.466 301.595 304.587C301.596 306.816 301.92 309.032 302.557 311.167C302.569 311.274 302.622 311.372 302.706 311.439C302.79 311.507 302.897 311.538 303.003 311.526C303.11 311.515 303.208 311.461 303.275 311.377C303.343 311.294 303.374 311.187 303.362 311.08C303.65 308.905 303.726 306.707 303.59 304.517C303.579 302.361 303.326 300.213 302.837 298.112C310.73 297.045 334.862 293.79 338.152 287.052C342.037 279.37 341.722 269.377 340.112 261.047ZM180.862 232.872C181.055 232.4 186.917 231.122 193.322 232.872C193.381 232.86 193.442 232.861 193.5 232.875C193.558 232.889 193.612 232.916 193.659 232.953C193.706 232.991 193.743 233.039 193.769 233.093C193.795 233.147 193.808 233.206 193.808 233.266C193.808 233.326 193.795 233.385 193.769 233.439C193.743 233.494 193.706 233.541 193.659 233.579C193.612 233.617 193.558 233.644 193.5 233.658C193.442 233.672 193.381 233.672 193.322 233.66C190.133 234.227 186.876 234.309 183.662 233.905C182.157 233.66 180.25 233.642 180.81 232.872H180.862ZM270.83 274.487C254.642 277.567 165.217 276.867 163.87 276.237C162.522 275.607 162.4 273.577 162.365 272.247C172.06 275.397 266.787 272.965 272.055 270.182C272.335 271.722 272.405 274.19 270.777 274.487H270.83ZM236.862 233.065C236.862 232.47 240.712 232.137 240.887 232.12C243.176 231.944 245.476 231.944 247.765 232.12C249.042 232.26 250.81 232.435 250.67 232.977C250.53 233.52 247.887 233.747 247.432 233.817C245.722 233.975 244.005 234.045 242.287 234.027C241.132 233.992 236.74 233.782 236.81 233.065H236.862ZM259.35 238.892C263.728 247.235 267.404 255.927 270.34 264.88C270.713 266.011 270.919 267.19 270.952 268.38C263.06 270.83 172.095 273.35 162.89 270.707C162.452 270.585 162.33 270.707 162.225 269.972C161.56 265.212 169.347 246.295 171.15 241.885C204.26 240.782 259 239.085 259.297 238.892H259.35ZM244.615 123.2C242.701 122.149 240.964 120.802 239.47 119.21C238.787 118.177 238.945 117.46 240.957 118.44C242.217 119.017 243.985 120.05 245.175 120.767C244.869 121.546 244.68 122.366 244.615 123.2ZM286.615 126.332C288.015 123.812 289.397 123.095 289.257 124.582C288.505 127.244 287.436 129.806 286.072 132.212C285.967 130.462 285.845 129.29 285.705 128.135C285.775 127.89 286.125 127.155 286.562 126.332H286.615ZM279.177 141.557C279.527 142.555 279.755 143.15 279.772 143.185C279.792 143.235 279.82 143.28 279.857 143.318C279.894 143.356 279.938 143.387 279.987 143.408C280.036 143.429 280.089 143.441 280.142 143.441C280.195 143.442 280.248 143.432 280.297 143.412C281.067 143.115 279.93 142.397 278.11 131.845C277.567 128.695 275.957 118.982 279.142 118.527C281.732 118.142 283.132 124.565 283.622 127.102C284.53 131.994 285.115 136.939 285.372 141.907C285.371 142.004 285.405 142.098 285.467 142.173C285.53 142.247 285.617 142.295 285.713 142.31C285.809 142.325 285.906 142.305 285.989 142.254C286.071 142.202 286.131 142.123 286.16 142.03C286.165 141.931 286.165 141.832 286.16 141.732C287.742 141.779 289.314 141.996 290.85 142.38C290.654 142.608 290.409 142.788 290.132 142.905C286.457 144.795 275.345 144.427 271.512 144.357C272.037 143.307 272.405 142.502 272.807 141.54C274.899 141.884 277.031 141.89 279.125 141.557H279.177ZM265.527 137.725C265.93 134.225 266.822 128.642 270.357 129.307C273.892 129.972 273 135.1 272.23 138.53C271.755 140.498 271.171 142.437 270.48 144.34H265.23C265.187 142.132 265.269 139.924 265.475 137.725H265.527ZM263.305 129.5C263.386 129.422 263.483 129.363 263.589 129.325C263.694 129.287 263.807 129.272 263.919 129.28C264.031 129.288 264.14 129.32 264.239 129.373C264.339 129.426 264.426 129.499 264.495 129.587C264.773 129.867 265.025 130.171 265.247 130.497C264.75 131.613 264.403 132.79 264.215 133.997C263.305 132.737 262.132 130.445 263.305 129.5ZM257.792 118.86C260.067 119.577 258.282 125.562 256.76 127.382C256.339 125.499 255.711 123.668 254.887 121.922C255.395 120.382 256.252 118.37 257.792 118.842V118.86ZM253.487 141.75C254.345 142.835 254.905 143.5 254.905 143.5C254.974 143.569 255.066 143.61 255.164 143.615C255.261 143.621 255.357 143.591 255.435 143.531C255.512 143.471 255.564 143.385 255.583 143.289C255.601 143.194 255.584 143.094 255.535 143.01C255.535 143.01 252.437 138.6 249.882 134.032C247.957 130.532 246.12 127.032 246.627 123.165C247.03 120.12 248.64 118.825 251.352 120.592C255.272 123.112 257.057 138.652 257.617 143.342C257.623 143.465 257.666 143.583 257.741 143.68C257.816 143.777 257.92 143.849 258.037 143.885C258.51 143.885 258.44 143.377 258.422 143.132C258.405 142.887 258.422 141.662 258.422 141.54C260.281 141.775 262.163 141.775 264.022 141.54C264.127 142.817 264.25 143.815 264.337 144.34C258.125 144.34 250.617 144.76 245.472 142.747C248.117 142.224 250.795 141.891 253.487 141.75ZM245.105 144.322C247.664 145.314 250.362 145.905 253.102 146.072C256.2 146.352 277.287 146.387 279.685 146.265C283.3 146.206 286.879 145.537 290.272 144.287C290.598 146.436 290.475 148.629 289.912 150.729C289.349 152.828 288.357 154.788 287 156.485C282.747 161.472 255.85 162.61 249.392 158.06C245.14 155.137 244.37 149.292 245.105 144.305V144.322ZM231 195.702C231.367 196.875 64.5047 196.927 64.3297 196.91C57.3297 196.91 59.0797 196.91 56.7347 196.332C56.1047 196.192 55.9822 196.192 55.8597 195.58C55.7113 194.619 55.6702 193.645 55.7372 192.675C55.7739 192.747 55.8332 192.804 55.9059 192.839C55.9786 192.874 56.0608 192.884 56.1397 192.867C56.1397 192.867 230.947 190.487 232.085 190.452C232.557 192.5 232.627 194.407 231 195.702ZM280.227 89.4949C280.227 89.4949 280.332 89.3199 280.367 89.3724C280.402 89.4249 280.227 89.4774 280.14 89.4949H280.227ZM193.2 45.3599C193.2 44.2224 193.655 39.9174 194.67 39.3924C196.98 38.2374 270.392 37.2574 280.42 40.3899C282.17 44.0649 281.61 85.3474 280.14 89.4949C271.53 90.8424 228.2 90.7374 216.93 91.8924C217.612 78.1199 217.91 66.5174 217.35 64.2599C217.242 63.9655 217.067 63.7001 216.839 63.4846C216.612 63.269 216.337 63.1091 216.037 63.0174C212.205 61.3549 197.785 60.8824 193.585 60.7424C193.04 55.6338 192.911 50.4894 193.2 45.3599ZM72.1872 89.4249C71.9247 85.7499 70.6297 67.1999 74.1297 65.9049C75.8797 65.2924 82.0397 64.6799 90.9822 64.1549C108.115 63.0874 135.117 62.2299 159.687 62.0549C165.147 62.0549 211.277 61.6524 215.792 64.7499C217.122 70.8049 212.87 138.075 211.925 144.567C170.572 145.915 121.572 147.945 79.8697 146.93C79.1697 142.922 73.8147 112 72.1872 89.4249ZM79.3272 148.102C79.3305 148.062 79.3305 148.021 79.3272 147.98C108.815 148.89 201.092 145.862 212.327 145.792C213.57 148.68 231.017 187.39 231.752 189.542C231.56 189.542 55.9997 191.922 55.7722 192.097C57.9772 184.712 76.2122 153.492 79.3272 148.102ZM127.435 265.352C126.14 267.872 86.9047 285.407 78.8372 287.84C78.9937 287.033 79.0524 286.211 79.0122 285.39C90.9297 281.26 116.795 270.357 128.397 262.64C128.176 263.582 127.853 264.497 127.435 265.37V265.352ZM128.642 261.485C125.142 263.55 121.8 264.985 78.9947 284.445C78.9964 283.653 78.8904 282.864 78.6797 282.1C84.2797 279.475 122.255 264.757 129.027 258.895C128.94 259.647 128.817 260.557 128.642 261.502V261.485ZM38.4997 225.575C39.3412 226.566 39.862 227.79 39.9933 229.083C40.1245 230.377 39.86 231.68 39.2347 232.82C38.9547 233.257 39.6197 233.712 39.8997 233.257C40.9562 232.106 41.5807 230.624 41.6669 229.063C41.7531 227.503 41.2955 225.961 40.3722 224.7C48.8772 220.797 57.2422 217.122 59.5347 216.125C60.1082 217.29 60.4152 218.568 60.4334 219.867C60.4515 221.165 60.1804 222.452 59.6397 223.632C59.4297 224.192 60.0597 224.402 60.3572 224.035C61.3197 222.812 61.9187 221.343 62.0858 219.796C62.2529 218.248 61.9814 216.685 61.3022 215.285C63.1922 214.217 67.6022 211.785 69.7547 211.785C72.4497 211.785 127.137 256.27 128.152 257.285C123.585 261.992 81.1822 278.775 77.6122 280.49C70.0872 278.74 24.1672 239.242 19.8622 235.182C22.5397 232.96 35.4897 226.975 38.4997 225.575ZM18.5322 235.987C23.9922 241.325 69.5447 281.085 77.1747 282.345C77.0216 283.004 76.9511 283.68 76.9647 284.357C64.7147 278.372 29.7147 248.062 18.1297 238.315C18.1822 238.315 18.4447 236.6 18.5847 235.987H18.5322ZM18.7947 241.99C18.3011 241.238 18.0562 240.351 18.0947 239.452C29.5397 251.002 61.8447 279.405 76.9472 285.32C76.9161 286.256 77.0102 287.192 77.2272 288.102C68.2497 286.09 19.9847 243.425 18.8472 241.99H18.7947ZM337.295 286.475C325.99 308.91 19.2147 303.047 14.2447 294.297C12.138 290.636 10.7149 286.621 10.0447 282.45C10.7198 283.928 11.8474 285.154 13.2647 285.95C39.0247 300.947 295.312 297.027 328.772 285.005C335.86 282.45 339.43 276.937 340.235 269.255C340.71 275.154 339.686 281.077 337.26 286.475H337.295Z" fill="white"/>
<path d="M75.2496 167.457C198.992 169.207 210.805 168.14 214.27 167.597C215.092 167.475 215.617 167.195 215.582 166.232C215.582 163.695 209.632 152.057 208.057 151.252C207.357 150.885 82.0571 152.652 81.6196 152.792C81.538 152.812 81.4616 152.849 81.3953 152.9C81.3289 152.951 81.2741 153.016 81.2346 153.09C80.0446 155.032 74.2346 164.622 74.4971 166.792C74.5255 166.973 74.6162 167.139 74.7536 167.26C74.8909 167.382 75.0663 167.451 75.2496 167.457ZM82.1271 154C83.3871 153.842 206.657 152.617 207.41 152.687C208.716 154.567 209.886 156.538 210.91 158.585C208.04 158.585 79.7646 159.267 79.0996 159.285C79.8696 157.745 80.8846 155.995 82.1271 154ZM78.6271 160.125C79.3096 160.125 209.107 159.46 211.33 159.407C212.481 161.552 213.391 163.817 214.042 166.162C207.812 167.16 151.042 166.67 75.8796 166.162C76.5818 164.043 77.4903 161.997 78.5921 160.055L78.6271 160.125ZM171.832 173.407C171.483 172.635 170.913 171.983 170.193 171.534C169.473 171.086 168.637 170.861 167.79 170.887C163.345 170.887 126.017 169.855 122.657 171.22C120.512 173.819 118.852 176.783 117.757 179.97C117.652 180.74 118.037 181.09 118.51 181.142C129.01 182.28 163.817 183.365 172.847 181.702C173.967 181.492 174.107 180.302 173.88 179.165C173.338 177.199 172.653 175.274 171.832 173.407ZM119 179.97C120.005 177.13 121.369 174.431 123.06 171.937C125.72 171.062 160.317 172.882 167.842 172.865C168.29 172.849 168.733 172.962 169.118 173.192C169.503 173.422 169.813 173.758 170.012 174.16C170.863 175.978 171.525 177.877 171.99 179.83C163.117 181.212 125.44 180.425 119 179.97ZM293.37 175.647C290.902 172.252 278.53 172.41 274.382 172.532C270.882 172.532 258.16 173.11 258.16 176.54C258.174 176.818 258.255 177.088 258.395 177.328C258.535 177.569 258.73 177.773 258.965 177.922C259.297 178.185 257.005 201.25 260.155 213.622C261.187 217.717 262.517 219.747 266.42 221.445C273.91 224.7 286.335 223.982 291.322 217.035C292.32 215.005 292.11 209.09 292.197 207.287C299.95 208.827 306.302 205.677 307.947 197.33C308.98 191.957 307.65 188.44 305.357 186.305C303.825 185.058 302.015 184.2 300.08 183.804C298.145 183.408 296.143 183.485 294.245 184.03C294.178 184.052 294.108 184.058 294.038 184.048C293.969 184.037 293.904 184.01 293.847 183.969C293.791 183.928 293.745 183.874 293.713 183.811C293.682 183.749 293.666 183.68 293.667 183.61C293.667 182.682 294 176.4 293.37 175.647ZM260.12 176.015C264.845 173.25 284.095 173.04 290.307 175.857C290.517 175.962 291.305 176.365 291.305 176.54C291.305 176.715 290.5 177.135 290.307 177.222C285.617 179.34 268.87 180.302 260.067 177.082C259.455 176.75 260.067 176.085 260.067 176.015H260.12ZM294.735 185.815C296.325 185.357 298.003 185.291 299.624 185.623C301.246 185.955 302.763 186.675 304.045 187.722C305.935 189.472 306.88 192.482 306.005 196.945C305.831 198.496 305.293 199.985 304.435 201.289C303.578 202.594 302.425 203.677 301.07 204.452C298.199 205.744 294.968 205.992 291.935 205.152C291.785 205.098 291.627 205.075 291.469 205.085C291.31 205.095 291.156 205.138 291.014 205.21C290.873 205.282 290.748 205.383 290.648 205.505C290.547 205.628 290.473 205.77 290.43 205.922C289.957 207.252 290.622 212.625 289.66 216.02C285.232 222.022 273.91 222.565 267.207 219.747C263.812 218.295 262.867 216.79 261.957 213.167C259.612 204.575 259.472 187.075 259.997 178.465C265.51 181.072 284.602 181.825 292.11 177.975C292.11 183.4 291.445 184.31 292.81 185.412C293.074 185.612 293.378 185.751 293.701 185.82C294.025 185.89 294.359 185.888 294.682 185.815H294.735ZM124.74 222.897C120.144 218.999 115.2 215.531 109.97 212.537C107.955 211.349 105.812 210.392 103.582 209.685C101.71 209.195 100.922 210.157 101.307 211.435C102.096 213.269 103.139 214.983 104.405 216.527C108.431 221.624 113.062 226.214 118.195 230.195C126 236.722 136.115 244.632 143.5 250.25C143.876 250.525 144.303 250.722 144.757 250.829C145.21 250.937 145.68 250.953 146.14 250.876C146.6 250.8 147.039 250.632 147.433 250.383C147.827 250.134 148.168 249.809 148.435 249.427C149.73 248.01 150.535 245.525 149.082 244.177C147.402 242.672 137.13 232.995 124.74 222.897ZM107.975 219.012L105.577 215.145C106.431 214.79 107.152 214.179 107.642 213.395L111.44 214.935C110.487 215.124 109.626 215.63 108.997 216.37C108.368 217.11 108.007 218.041 107.975 219.012ZM113.347 223.475C112.082 222.411 110.911 221.24 109.847 219.975C109.97 217.857 110.635 216.912 112.752 216.842C114.163 217.516 115.495 218.344 116.725 219.31C115.784 219.539 114.944 220.071 114.334 220.823C113.723 221.575 113.377 222.507 113.347 223.475ZM143.272 248.937C141.33 247.31 115.5 225.4 113.907 224C114.041 223.02 114.469 222.104 115.134 221.373C115.8 220.642 116.672 220.13 117.635 219.905C123.672 224.385 132.352 231.805 147.49 244.405C146.9 244.375 146.312 244.474 145.765 244.696C145.218 244.918 144.727 245.256 144.325 245.688C143.923 246.12 143.62 246.635 143.438 247.196C143.257 247.758 143.2 248.352 143.272 248.937ZM281.942 268.327C284.13 269.815 285.652 269.132 287.07 267.067C290.57 262.097 302.82 240.1 302.82 239.925C302.82 239.75 302.96 240.082 302.382 233.012C302.357 232.747 302.261 232.492 302.104 232.276C301.947 232.061 301.735 231.891 301.489 231.785C301.244 231.68 300.975 231.642 300.71 231.676C300.445 231.71 300.195 231.815 299.985 231.98L294 236.337C294 236.337 280.717 263.795 280.577 264.04C280.337 264.808 280.339 265.632 280.583 266.399C280.827 267.166 281.302 267.839 281.942 268.327ZM300.475 234.115C300.58 235.392 300.72 237.09 300.825 238.262C299.525 237.64 298.164 237.153 296.765 236.81L300.475 234.115ZM295.47 238C296.986 239.075 298.738 239.771 300.58 240.03C300.317 240.485 286.947 264.88 286.807 265.125C286.401 264.298 285.733 263.629 284.907 263.22C284.081 262.812 283.143 262.688 282.24 262.867C283.605 260.33 294.98 238.875 295.47 238Z" fill="white"/>
<path d="M287.42 203.297C287.231 203.033 286.992 202.808 286.715 202.637C286.439 202.465 286.131 202.351 285.81 202.3C284.774 202.023 283.722 201.813 282.66 201.67C283.255 205.835 283.605 210.42 283.587 210.822C283.561 211.089 283.43 211.334 283.224 211.504C283.017 211.675 282.752 211.757 282.485 211.732C282.217 211.701 281.972 211.567 281.802 211.358C281.632 211.148 281.55 210.881 281.575 210.612C281.575 210.315 281.47 209.107 281.382 201.495C277.882 201.057 261.03 199.745 261.695 203.105C261.695 203.28 260.312 211.855 265.667 215.967C271.022 220.08 281.732 219.275 285.477 215.092C286.54 213.819 287.241 212.284 287.507 210.647C287.921 208.212 287.891 205.722 287.42 203.297ZM291.62 187.46C291.62 188.247 290.57 194.267 289.87 202.352L290.71 202.527C293.789 203.181 296.996 202.831 299.862 201.53C300.862 200.975 301.689 200.155 302.254 199.162C302.819 198.168 303.1 197.038 303.065 195.895C303.184 194.474 302.937 193.047 302.347 191.749C301.758 190.451 300.846 189.326 299.699 188.48C298.551 187.634 297.206 187.097 295.792 186.918C294.378 186.739 292.942 186.926 291.62 187.46ZM292.407 188.055C293.524 187.878 294.666 187.943 295.756 188.245C296.846 188.546 297.858 189.079 298.725 189.805C299.557 190.568 300.201 191.513 300.608 192.567C301.015 193.62 301.173 194.753 301.07 195.877C300.912 200.375 296.292 201.232 291.865 200.777C292.075 197.592 292.25 193.935 292.407 188.055ZM273.665 85.3298C273.66 85.6415 273.717 85.9511 273.833 86.2406C273.949 86.5302 274.12 86.794 274.338 87.0168C274.556 87.2397 274.816 87.4172 275.103 87.5392C275.39 87.6611 275.698 87.7251 276.01 87.7273C276.486 87.7378 276.955 87.6061 277.356 87.349C277.757 87.092 278.072 86.7213 278.262 86.2843C278.452 85.8472 278.507 85.3636 278.42 84.8951C278.334 84.4266 278.109 83.9946 277.776 83.654C277.443 83.3134 277.016 83.0798 276.55 82.983C276.083 82.8861 275.599 82.9304 275.157 83.1103C274.716 83.2901 274.339 83.5972 274.073 83.9926C273.807 84.3879 273.665 84.8534 273.665 85.3298ZM82.1274 143.062C82.5299 143.85 83.0549 143.937 83.3874 143.692C83.7199 143.447 194.547 142.485 202.79 142.047C204.563 142.075 206.33 141.851 208.04 141.382C211.977 137.882 213.517 72.4498 211.977 69.4223C208.04 61.5648 84.8049 66.6223 77.2274 68.9148C71.1899 70.7348 79.3449 137.48 82.1274 143.062ZM76.8949 71.7498C76.8949 71.4348 77.2799 70.2098 77.5774 70.1223C85.9599 67.6023 207.672 63.4548 210.98 70.0348C211.262 71.3514 211.391 72.6961 211.365 74.0423C211.662 81.6723 211.365 98.0173 210.577 112.665C210.42 115.465 209.177 138.407 207.357 140.49C200.095 142.03 88.1824 142.38 83.2124 142.572C80.3774 135.992 74.2524 83.2998 76.8949 71.7498ZM276.237 46.7423C276.713 46.7527 277.181 46.6215 277.582 46.3652C277.982 46.1089 278.298 45.7393 278.488 45.3032C278.678 44.8672 278.734 44.3845 278.649 43.9165C278.564 43.4486 278.341 43.0165 278.01 42.6752C277.679 42.334 277.253 42.099 276.788 42.0002C276.323 41.9014 275.839 41.9432 275.397 42.1203C274.956 42.2975 274.577 42.6019 274.309 42.9949C274.041 43.3879 273.896 43.8517 273.892 44.3273C273.885 44.6405 273.941 44.9519 274.055 45.2435C274.17 45.5351 274.341 45.801 274.559 46.0257C274.778 46.2504 275.038 46.4295 275.326 46.5525C275.615 46.6756 275.924 46.7401 276.237 46.7423Z" fill="white"/>
<path d="M111.142 115.85H131.932C134.338 115.841 136.642 114.877 138.338 113.171C140.034 111.465 140.984 109.156 140.98 106.75V89.8798C140.98 87.4688 140.031 85.1548 138.337 83.4386C136.644 81.7223 134.343 80.742 131.932 80.7098H111.142C109.937 80.7052 108.742 80.9392 107.627 81.3984C106.513 81.8576 105.5 82.5329 104.648 83.3853C103.795 84.2378 103.12 85.2505 102.661 86.3651C102.202 87.4798 101.968 88.6743 101.972 89.8798V106.75C101.977 107.949 102.218 109.136 102.681 110.243C103.144 111.35 103.821 112.354 104.672 113.199C105.524 114.044 106.534 114.713 107.644 115.168C108.754 115.623 109.943 115.854 111.142 115.85ZM103.46 89.8798C103.492 87.8571 104.313 85.9269 105.748 84.5014C107.184 83.0758 109.119 82.2678 111.142 82.2498H131.932C132.954 82.2382 133.968 82.4292 134.915 82.8116C135.862 83.1941 136.725 83.7604 137.452 84.478C138.179 85.1956 138.757 86.0501 139.153 86.9923C139.548 87.9345 139.752 88.9456 139.755 89.9673V106.75C139.75 107.772 139.544 108.784 139.149 109.727C138.753 110.67 138.175 111.526 137.449 112.246C136.723 112.966 135.862 113.536 134.915 113.923C133.968 114.31 132.955 114.507 131.932 114.502H111.142C110.129 114.498 109.126 114.294 108.191 113.901C107.257 113.509 106.409 112.937 105.695 112.217C104.982 111.497 104.417 110.644 104.034 109.706C103.65 108.768 103.455 107.763 103.46 106.75V89.8798ZM167.352 128.345C167.702 129.377 168.577 129.15 168.822 128.502C169.155 127.575 171.097 120.907 171.342 119.752C172.69 119.332 168.892 120.645 180.635 116.375C180.756 116.328 180.861 116.245 180.935 116.137C181.009 116.029 181.048 115.902 181.048 115.771C181.048 115.64 181.009 115.513 180.935 115.405C180.861 115.297 180.756 115.214 180.635 115.167L162.645 107.975C162.534 107.923 162.412 107.9 162.29 107.91C162.168 107.919 162.051 107.961 161.95 108.03C161.849 108.099 161.768 108.193 161.715 108.303C161.662 108.413 161.639 108.535 161.647 108.657C161.647 108.657 166.39 125.562 167.352 128.345ZM163.45 109.847L178.605 115.815C176.575 116.567 173.145 117.862 171.5 118.527C170.765 118.807 170.467 118.93 170.292 119.157C170.117 119.385 170.73 118.02 168.157 125.947L163.45 109.847ZM204.75 58.5373C204.77 58.6423 204.827 58.7366 204.91 58.8038C204.994 58.8711 205.098 58.9068 205.205 58.9048C205.572 58.9048 216.895 59.9898 219.205 59.3773C220.692 58.9748 220.955 56.3498 221.095 54.8098C221.27 52.4823 221.095 46.7773 220.115 44.8348C218.785 42.2098 208.967 43.0848 206.115 43.5923C205.358 43.6988 204.634 43.9739 203.997 44.3973C203.626 44.8276 203.411 45.3699 203.385 45.9373C203.367 50.1751 203.825 54.4015 204.75 58.5373ZM205.257 45.7448C208.022 44.8873 215.897 44.5548 218.4 45.7448C219.257 48.0198 219.712 55.8423 218.68 57.6623C217.052 58.0823 207.112 58.0823 205.45 58.0998C205.397 56.7348 204.592 49.3673 205.257 45.7448ZM228.235 58.4673C228.258 58.5707 228.316 58.6632 228.398 58.7299C228.481 58.7966 228.584 58.8335 228.69 58.8348C229.057 58.8348 240.38 59.9198 242.69 59.3073C244.177 58.9048 244.44 56.2798 244.597 54.7398C244.755 52.4123 244.597 46.7073 243.6 44.7648C242.27 42.1223 232.452 43.0148 229.6 43.5223C228.844 43.636 228.122 43.9105 227.482 44.3273C227.119 44.7623 226.905 45.3018 226.87 45.8673C226.853 50.1051 227.311 54.3313 228.235 58.4673ZM228.742 45.6748C231.507 44.7998 239.382 44.4848 241.885 45.6748C242.742 47.9498 243.197 55.7723 242.165 57.5748C240.537 58.0123 230.597 58.0123 228.935 58.0298C228.882 56.6648 228.077 49.2973 228.742 45.6748ZM252.805 59.2373C252.825 59.3423 252.882 59.4366 252.965 59.5038C253.049 59.5711 253.153 59.6068 253.26 59.6048C253.627 59.6048 264.95 60.6898 267.26 60.0773C268.747 59.6748 269.01 57.0498 269.15 55.5098C269.325 53.1823 269.15 47.4773 268.17 45.5348C266.84 42.9098 257.022 43.7848 254.17 44.2923C253.414 44.4033 252.691 44.6781 252.052 45.0973C251.681 45.5276 251.466 46.0699 251.44 46.6373C251.422 50.8751 251.88 55.1015 252.805 59.2373ZM253.312 46.4448C256.077 45.5873 263.952 45.2548 266.455 46.4448C267.312 48.7198 267.767 56.5423 266.735 58.3623C265.107 58.7823 255.167 58.7823 253.505 58.7998C253.452 57.4348 252.647 50.0673 253.312 46.4448ZM228.392 85.3823C228.515 85.7323 228.795 85.7673 228.847 85.7498C229.232 85.7498 240.537 86.8348 242.847 86.2223C244.335 85.8198 244.597 83.1948 244.755 81.6548C244.912 79.3273 244.755 73.6223 243.775 71.6973C242.427 69.0548 232.61 69.9473 229.775 70.4373C229.013 70.5459 228.284 70.8207 227.64 71.2423C227.273 71.682 227.058 72.2283 227.027 72.7998C227.011 77.0318 227.469 81.2523 228.392 85.3823ZM228.917 72.5898C231.682 71.7323 239.54 71.3998 242.042 72.5898C242.9 74.8648 243.355 82.6873 242.322 84.5073C240.695 84.9273 230.772 84.9273 229.11 84.9448C229.04 83.5798 228.235 76.2123 228.917 72.5898ZM269.307 70.9798C272.107 66.8498 274.557 63.1223 274.645 62.9473C274.732 62.7723 273.455 61.1973 272.702 62.3173C267.347 70.5598 268.082 69.7723 267.697 69.6323C264.617 68.5123 254.677 68.8973 253.12 70.3498C252.07 71.3298 252.472 74.8823 252.595 76.4048C251.475 75.7748 250.617 75.3198 250.302 75.1973C249.497 74.8823 249.55 75.6698 249.987 75.9498L252.717 77.6998C252.938 79.9996 253.295 82.2844 253.785 84.5423C253.802 84.6489 253.858 84.7454 253.942 84.8133C254.026 84.8811 254.132 84.9155 254.24 84.9098C254.607 84.9098 265.93 85.9948 268.24 85.3823C271.25 84.5423 270.322 73.4998 269.307 70.9798ZM254.292 71.6973C258.409 70.7606 262.674 70.6831 266.822 71.4698L260.75 81.0423C260.137 80.6923 256.865 78.7673 254.135 77.2273C254.019 75.4005 254.072 73.567 254.292 71.7498V71.6973ZM267.715 83.5973C266.07 84.0348 256.147 84.0348 254.485 84.0523C254.485 83.3523 254.222 81.0598 254.1 78.5223L260.75 82.6523C260.918 82.6707 261.088 82.641 261.239 82.5666C261.391 82.4923 261.519 82.3763 261.607 82.2323C262.167 81.5148 264.985 77.4198 267.855 73.2023C268.397 76.3523 268.572 82.0923 267.75 83.5973H267.715ZM198.135 46.1648C198.61 46.1717 199.076 46.0375 199.474 45.779C199.873 45.5206 200.185 45.1497 200.373 44.7133C200.56 44.2769 200.614 43.7947 200.526 43.3278C200.439 42.861 200.216 42.4305 199.883 42.091C199.551 41.7515 199.126 41.5183 198.661 41.421C198.196 41.3236 197.713 41.3665 197.273 41.5442C196.832 41.7219 196.454 42.0264 196.187 42.4191C195.92 42.8117 195.776 43.2749 195.772 43.7498C195.772 44.3813 196.019 44.9878 196.461 45.4392C196.902 45.8906 197.503 46.1511 198.135 46.1648Z" fill="white"/>
</svg>
