<svg width="50" height="50" viewBox="0 0 50 50" fill="none" xmlns="http://www.w3.org/2000/svg">
<path d="M25 0C18.2038 0 17.3569 0.0328166 14.6971 0.145331C12.0265 0.276597 10.22 0.690711 8.62608 1.30954C6.98212 1.95337 5.58195 2.80816 4.19896 4.19896C2.8066 5.58195 1.94399 6.98212 1.30954 8.62608C0.690711 10.22 0.276597 12.0265 0.145331 14.6972C0.0250031 17.3584 0 18.2038 0 25C0 31.7962 0.0328166 32.6431 0.145331 35.3029C0.276597 37.9657 0.690711 39.78 1.30954 41.3739C1.95337 43.0179 2.80816 44.4181 4.19896 45.801C5.58195 47.1934 6.98212 48.056 8.62608 48.6905C10.22 49.3015 12.0343 49.7234 14.6971 49.8547C17.3584 49.975 18.2038 50 25 50C31.7962 50 32.6431 49.9672 35.3029 49.8547C37.9657 49.7234 39.78 49.2999 41.3739 48.6905C43.0179 48.0466 44.4181 47.1918 45.801 45.801C47.1934 44.4181 48.056 43.0257 48.6905 41.3739C49.3015 39.78 49.7234 37.9657 49.8547 35.3029C49.975 32.6416 50 31.7962 50 25C50 18.2038 49.9672 17.3569 49.8547 14.6972C49.7234 12.0343 49.2999 10.2107 48.6905 8.62608C48.0466 6.98212 47.1918 5.58195 45.801 4.19896C44.4181 2.8066 43.0257 1.94399 41.3739 1.30954C39.78 0.690711 37.9657 0.276597 35.3029 0.145331C32.6416 0.0250031 31.7962 0 25 0ZM25 4.50056C31.6743 4.50056 32.4712 4.53338 35.1091 4.64589C37.5422 4.75997 38.8674 5.16627 39.7472 5.51006C40.9207 5.96481 41.7412 6.50238 42.6288 7.38061C43.4992 8.25103 44.0368 9.08082 44.4915 10.2544C44.8353 11.1342 45.2416 12.4594 45.3557 14.8925C45.4682 17.5303 45.501 18.3289 45.501 25.0016C45.501 31.6743 45.4682 32.4728 45.3463 35.1106C45.215 37.5438 44.8087 38.8689 44.4665 39.7487C43.993 40.9223 43.4648 41.7427 42.5928 42.6303C41.713 43.5008 40.8754 44.0383 39.7112 44.4931C38.8424 44.8369 37.4984 45.2432 35.0559 45.3572C32.404 45.4697 31.6227 45.5026 24.9312 45.5026C18.2398 45.5026 17.46 45.4697 14.805 45.3479C12.3719 45.2166 11.0295 44.8103 10.1497 44.4681C8.96206 43.9946 8.14789 43.4664 7.27591 42.5944C6.39611 41.7146 5.83667 40.877 5.40536 39.7128C5.05532 38.8439 4.65527 37.5 4.52557 35.0575C4.43649 32.4369 4.3943 31.6243 4.3943 24.9641C4.3943 18.307 4.43649 17.4928 4.52557 14.8394C4.65527 12.3969 5.05532 11.0561 5.40536 10.1841C5.83667 8.99488 6.39768 8.18227 7.27591 7.30248C8.14633 6.43205 8.96206 5.86948 10.1497 5.4288C11.0295 5.08657 12.339 4.68027 14.7815 4.55838C17.4334 4.46306 18.2148 4.42868 24.8969 4.42868L25 4.50056ZM25 12.1687C17.9038 12.1687 12.1656 17.9147 12.1656 25.0031C12.1656 32.0993 17.9116 37.8375 25 37.8375C32.0962 37.8375 37.8344 32.0915 37.8344 25.0031C37.8344 17.9069 32.0884 12.1687 25 12.1687ZM25 33.337C20.3932 33.337 16.6661 29.61 16.6661 25.0031C16.6661 20.3963 20.3932 16.6693 25 16.6693C29.6068 16.6693 33.3339 20.3963 33.3339 25.0031C33.3339 29.61 29.6068 33.337 25 33.337ZM41.352 11.6561C41.352 13.3173 40.0003 14.6581 38.347 14.6581C36.6858 14.6581 35.345 13.3157 35.345 11.6561C35.345 10.0044 36.6952 8.66046 38.347 8.66046C39.9987 8.66046 41.352 10.0044 41.352 11.6561Z" fill="white"/>
</svg>
